<svg version="1.1" viewBox="51.647419210053854 186.1728 434.278276481149 109.736" xmlns:xlink="http://www.w3.org/1999/xlink" xmlns="http://www.w3.org/2000/svg" style="max-height: 500px" width="434.278276481149" height="109.736">
<g id="surface1">
<path d="M 57 196 C 77 196 77 196 81.6875 200.3125 C 82.820312 202.191406 83.921875 204.089844 85 206 C 86.445312 207.839844 87.925781 209.652344 89.4375 211.4375 C 90.191406 212.359375 90.945312 213.277344 91.722656 214.226562 C 93.207031 216.035156 94.695312 217.84375 96.183594 219.648438 C 100.71875 225.164062 105.160156 230.742188 109.550781 236.371094 C 113.949219 241.988281 118.488281 247.484375 123.054688 252.964844 C 134 266.144531 134 266.144531 134 269 C 134.660156 269 135.320312 269 136 269 C 137.980469 271.640625 139.960938 274.28125 142 277 C 142.328125 250.269531 142.660156 223.539062 143 196 C 168.078125 196 193.160156 196 219 196 C 219 200.949219 219 205.898438 219 211 C 199.53125 211 180.058594 211 160 211 C 160 217.929688 160 224.859375 160 232 C 175.511719 231.671875 191.019531 231.339844 207 231 C 207 236.28125 207 241.558594 207 247 C 191.488281 247 175.980469 247 160 247 C 160 253.929688 160 260.859375 160 268 C 179.46875 268 198.941406 268 219 268 C 219 272.949219 219 277.898438 219 283 C 187.980469 283 156.960938 283 125 283 C 125 282.339844 125 281.679688 125 281 C 124.339844 281 123.679688 281 123 281 C 121.527344 279.355469 121.527344 279.355469 119.9375 277.1875 C 119.410156 276.480469 118.882812 275.773438 118.339844 275.042969 C 117 273 117 273 116 270 C 115.339844 270 114.679688 270 114 270 C 112.808594 268.636719 112.808594 268.636719 111.4375 266.6875 C 106.597656 260.011719 101.3125 253.683594 95.9375 247.4375 C 94 245 94 245 94 243 C 93.339844 243 92.679688 243 92 243 C 92 242.011719 92 241.019531 92 240 C 91.339844 240 90.679688 240 90 240 C 88.628906 238.488281 88.628906 238.488281 87.066406 236.386719 C 86.214844 235.257812 86.214844 235.257812 85.351562 234.101562 C 84.761719 233.304688 84.171875 232.507812 83.5625 231.6875 C 82.398438 230.128906 81.234375 228.570312 80.066406 227.011719 C 79.550781 226.316406 79.035156 225.617188 78.503906 224.902344 C 76.847656 222.730469 76.847656 222.730469 74 220 C 73.671875 240.789062 73.339844 261.578125 73 283 C 67.71875 283 62.441406 283 57 283 C 57 254.289062 57 225.578125 57 196 Z M 57 196" style="stroke:none;fill-rule:nonzero;fill:rgb(100%,100%,100%);fill-opacity:1;"/>
<path d="M 57 196 C 77 196 77 196 81.6875 200.3125 C 82.820312 202.191406 83.921875 204.089844 85 206 C 86.445312 207.839844 87.925781 209.652344 89.4375 211.4375 C 90.191406 212.359375 90.945312 213.277344 91.722656 214.226562 C 93.207031 216.035156 94.695312 217.84375 96.183594 219.648438 C 100.71875 225.164062 105.160156 230.742188 109.550781 236.371094 C 113.949219 241.988281 118.488281 247.484375 123.054688 252.964844 C 134 266.144531 134 266.144531 134 269 C 134.660156 269 135.320312 269 136 269 C 137.980469 271.640625 139.960938 274.28125 142 277 C 142.328125 250.269531 142.660156 223.539062 143 196 C 143.328125 196 143.660156 196 144 196 C 144 224.378906 144 252.761719 144 282 C 168.421875 282 192.839844 282 218 282 C 218 278.371094 218 274.738281 218 271 C 218.328125 271 218.660156 271 219 271 C 219 274.960938 219 278.921875 219 283 C 187.980469 283 156.960938 283 125 283 C 125 282.339844 125 281.679688 125 281 C 124.339844 281 123.679688 281 123 281 C 121.527344 279.355469 121.527344 279.355469 119.9375 277.1875 C 119.410156 276.480469 118.882812 275.773438 118.339844 275.042969 C 117 273 117 273 116 270 C 115.339844 270 114.679688 270 114 270 C 112.808594 268.636719 112.808594 268.636719 111.4375 266.6875 C 106.597656 260.011719 101.3125 253.683594 95.9375 247.4375 C 94 245 94 245 94 243 C 93.339844 243 92.679688 243 92 243 C 92 242.011719 92 241.019531 92 240 C 91.339844 240 90.679688 240 90 240 C 88.628906 238.488281 88.628906 238.488281 87.066406 236.386719 C 86.214844 235.257812 86.214844 235.257812 85.351562 234.101562 C 84.761719 233.304688 84.171875 232.507812 83.5625 231.6875 C 82.398438 230.128906 81.234375 228.570312 80.066406 227.011719 C 79.550781 226.316406 79.035156 225.617188 78.503906 224.902344 C 76.847656 222.730469 76.847656 222.730469 74 220 C 73.671875 240.789062 73.339844 261.578125 73 283 C 67.71875 283 62.441406 283 57 283 C 57 254.289062 57 225.578125 57 196 Z M 57 196" style="stroke:none;fill-rule:nonzero;fill:rgb(100%,100%,100%);fill-opacity:1;"/>
<path d="M 235 196 C 252.398438 193.773438 252.398438 193.773438 258.171875 197.34375 C 262.234375 201 265.269531 205.289062 268 210 C 268 210.660156 268 211.320312 268 212 C 268.660156 212 269.320312 212 270 212 C 271.367188 213.574219 271.367188 213.574219 272.875 215.6875 C 273.402344 216.414062 273.925781 217.140625 274.46875 217.886719 C 274.972656 218.585938 275.480469 219.28125 276 220 C 277.324219 221.671875 278.652344 223.34375 280 225 C 285.574219 219.023438 285.574219 219.023438 290.375 212.4375 C 290.910156 211.632812 291.449219 210.828125 292 210 C 292.660156 210 293.320312 210 294 210 C 294 209.339844 294 208.679688 294 208 C 294.660156 208 295.320312 208 296 208 C 296.269531 207.257812 296.535156 206.515625 296.8125 205.75 C 297.953125 203.109375 299.09375 201.144531 301 199 C 301.660156 199 302.320312 199 303 199 C 303.328125 198.011719 303.660156 197.019531 304 196 C 310.929688 196 317.859375 196 325 196 C 323.207031 199.582031 321.351562 202.765625 319 206 C 318.339844 206 317.679688 206 317 206 C 316.773438 206.523438 316.546875 207.050781 316.3125 207.589844 C 314.542969 210.839844 312.28125 213.664062 310 216.5625 C 307.578125 219.65625 305.183594 222.726562 303 226 C 302.339844 226 301.679688 226 301 226 C 300.773438 226.515625 300.546875 227.03125 300.3125 227.5625 C 298.519531 230.894531 296.5 234.148438 294 237 C 293.339844 237 292.679688 237 292 237 C 292.515625 241.214844 293.707031 243.207031 296.625 246.25 C 299.542969 249.394531 302.339844 252.566406 305 255.9375 C 305.578125 256.667969 306.15625 257.398438 306.75 258.152344 C 308 260 308 260 308 262 C 308.660156 262 309.320312 262 310 262 C 311.472656 263.644531 311.472656 263.644531 313.0625 265.8125 C 313.589844 266.519531 314.117188 267.226562 314.660156 267.957031 C 316 270 316 270 317 273 C 317.660156 273 318.320312 273 319 273 C 320.507812 274.679688 320.507812 274.679688 322.125 276.875 C 322.664062 277.59375 323.203125 278.3125 323.757812 279.054688 C 325 281 325 281 325 283 C 307.609375 285.222656 307.609375 285.222656 301.875 281.691406 C 298.320312 278.464844 295.585938 274.683594 293.035156 270.632812 C 291.933594 268.839844 291.933594 268.839844 290.195312 266.671875 C 289 265 289 265 289 263 C 288.339844 263 287.679688 263 287 263 C 286.339844 261.351562 285.679688 259.699219 285 258 C 284.339844 258 283.679688 258 283 258 C 282.339844 256.351562 281.679688 254.699219 281 253 C 280.339844 253 279.679688 253 279 253 C 277.625 251.320312 276.324219 249.578125 275.0625 247.8125 C 271.117188 242.367188 266.898438 237.238281 262.457031 232.191406 C 259 228.210938 259 228.210938 259 226 C 258.339844 226 257.679688 226 257 226 C 255.773438 224.601562 255.773438 224.601562 254.375 222.625 C 252.042969 219.402344 249.636719 216.273438 247.125 213.1875 C 235 198.113281 235 198.113281 235 196 Z M 235 196" style="stroke:none;fill-rule:nonzero;fill:rgb(100%,100%,100%);fill-opacity:1;"/>
<path d="M 339 196 C 364.078125 196 389.160156 196 415 196 C 415 200.949219 415 205.898438 415 211 C 405.101562 211 395.199219 211 385 211 C 385 234.761719 385 258.519531 385 283 C 379.71875 283 374.441406 283 369 283 C 369 259.238281 369 235.480469 369 211 C 359.101562 211 349.199219 211 339 211 C 339 206.050781 339 201.101562 339 196 Z M 339 196" style="stroke:none;fill-rule:nonzero;fill:rgb(100%,100%,100%);fill-opacity:1;"/>
<path d="M 469.375 244.6875 C 471.058594 244.632812 471.058594 244.632812 472.773438 244.574219 C 476.65625 245.085938 478.21875 246.304688 481 249 C 482.664062 251.417969 483.109375 252.34375 482.625 255.25 C 482.316406 256.117188 482.316406 256.117188 482 257 C 479.1875 257.25 479.1875 257.25 476 257 C 475.320312 256.011719 475.320312 256.011719 474.625 255 C 473.21875 252.800781 473.21875 252.800781 471.042969 252.734375 C 469.027344 252.75 467.011719 252.867188 465 253 C 464.671875 254.648438 464.339844 256.300781 464 258 C 464.664062 258.121094 465.328125 258.242188 466.011719 258.367188 C 470.535156 259.226562 474.800781 260.039062 479 262 C 479 262.660156 479 263.320312 479 264 C 479.660156 264 480.320312 264 481 264 C 482.902344 267.199219 484.015625 269.296875 483.9375 273.0625 C 482.835938 276.515625 481.5625 278.4375 479 281 C 473.734375 283.566406 468.75 283.546875 463 283 C 458.839844 281.515625 456.09375 279.957031 454 276 C 453.75 273.3125 453.75 273.3125 454 271 C 455 270 455 270 458.0625 269.9375 C 459.515625 269.96875 459.515625 269.96875 461 270 C 461.660156 271.320312 462.320312 272.640625 463 274 C 466.300781 274 469.601562 274 473 274 C 473.328125 272.679688 473.660156 271.359375 474 270 C 473.371094 269.757812 472.742188 269.515625 472.09375 269.265625 C 469.382812 268.203125 466.691406 267.105469 464 266 C 463.214844 265.699219 462.433594 265.398438 461.625 265.089844 C 457.664062 263.410156 456.300781 262.605469 454.3125 258.625 C 453.882812 253.632812 455.363281 250.976562 458.5 247.1875 C 461.777344 244.59375 465.367188 244.773438 469.375 244.6875 Z M 469.375 244.6875" style="stroke:none;fill-rule:nonzero;fill:rgb(100%,100%,100%);fill-opacity:1;"/>
<path d="M 264 245 C 265.320312 245.660156 266.640625 246.320312 268 247 C 268 247.660156 268 248.320312 268 249 C 268.660156 249 269.320312 249 270 249 C 271.507812 250.75 271.507812 250.75 273.125 253 C 273.664062 253.742188 274.203125 254.484375 274.757812 255.25 C 275.167969 255.828125 275.578125 256.40625 276 257 C 274.269531 260.554688 272.328125 263.796875 270 267 C 269.339844 267 268.679688 267 268 267 C 267.339844 268.648438 266.679688 270.300781 266 272 C 265.339844 272 264.679688 272 264 272 C 263.773438 272.515625 263.546875 273.03125 263.3125 273.5625 C 262.664062 274.769531 262.664062 274.769531 262 276 C 261.59375 276.867188 261.59375 276.867188 261.175781 277.753906 C 259.960938 279.914062 258.898438 281.394531 257 283 C 253.199219 283.875 249.5625 283.664062 245.6875 283.4375 C 244.660156 283.40625 243.632812 283.375 242.578125 283.34375 C 240.046875 283.257812 237.527344 283.144531 235 283 C 237.667969 279 240.332031 275 243 271 C 243.660156 271 244.320312 271 245 271 C 245.246094 270.457031 245.496094 269.917969 245.75 269.359375 C 247.28125 266.472656 249.089844 263.902344 251 261.25 C 251.703125 260.265625 252.402344 259.28125 253.125 258.265625 C 253.742188 257.519531 254.363281 256.769531 255 256 C 255.660156 256 256.320312 256 257 256 C 257 255.339844 257 254.679688 257 254 C 257.660156 254 258.320312 254 259 254 C 259.269531 253.257812 259.535156 252.515625 259.8125 251.75 C 260.941406 249.132812 262.207031 247.199219 264 245 Z M 264 245" style="stroke:none;fill-rule:nonzero;fill:rgb(100%,100%,100%);fill-opacity:1;"/>
<path d="M 442 245 C 444.640625 245 447.28125 245 450 245 C 450.097656 249 450.171875 253.003906 450.21875 257.003906 C 450.238281 258.363281 450.265625 259.722656 450.300781 261.082031 C 450.660156 275.386719 450.660156 275.386719 446 281 C 442.078125 283.808594 437.640625 283.636719 433 283 C 429.5625 281.4375 429.5625 281.4375 427 279 C 425.625 275.25 425.625 275.25 425 272 C 426 271 426 271 429.3125 270.6875 C 433.621094 271.054688 434.210938 271.921875 437 275 C 438.320312 275 439.640625 275 441 275 C 441.328125 265.101562 441.660156 255.199219 442 245 Z M 442 245" style="stroke:none;fill-rule:nonzero;fill:rgb(100%,100%,100%);fill-opacity:1;"/>
<path d="M 339 196 C 345.601562 196 352.199219 196 359 196 C 359 196.328125 359 196.660156 359 197 C 352.730469 197 346.460938 197 340 197 C 340 201.289062 340 205.578125 340 210 C 354.851562 209.503906 354.851562 209.503906 370 209 C 371.363281 211.726562 371.167969 213.960938 371.1875 217 C 371.203125 218.074219 371.214844 219.144531 371.230469 220.25 C 371 223 371 223 369 225 C 369 220.378906 369 215.761719 369 211 C 359.101562 211 349.199219 211 339 211 C 339 206.050781 339 201.101562 339 196 Z M 339 196" style="stroke:none;fill-rule:nonzero;fill:rgb(100%,100%,100%);fill-opacity:1;"/>
<path d="M 415 273 C 420.566406 273.566406 420.566406 273.566406 422 275 C 422.039062 277 422.042969 279 422 281 C 421.339844 281 420.679688 281 420 281 C 420 281.660156 420 282.320312 420 283 C 417.625 283.125 417.625 283.125 415 283 C 413 281 413 281 412.75 278 C 413 275 413 275 415 273 Z M 415 273" style="stroke:none;fill-rule:nonzero;fill:rgb(100%,100%,100%);fill-opacity:1;"/>
<path d="M 264 245 C 265.320312 245.660156 266.640625 246.320312 268 247 C 266.726562 249.550781 265.566406 249.867188 263 251 C 262.011719 251.328125 261.019531 251.660156 260 252 C 261.203125 249.507812 262.453125 247.320312 264 245 Z M 264 245" style="stroke:none;fill-rule:nonzero;fill:rgb(100%,100%,100%);fill-opacity:1;"/>
</g>
</svg>